<?xml version="1.0" encoding="UTF-8" standalone="no"?>
<!DOCTYPE svg PUBLIC "-//W3C//DTD SVG 1.1//EN"
 "http://www.w3.org/Graphics/SVG/1.1/DTD/svg11.dtd">
<!-- Generated by graphviz version 2.40.1 (20161225.0304)
 -->
<!-- Title: dependencies Pages: 1 -->
<svg width="923pt" height="284pt"
 viewBox="0.00 0.00 923.00 284.00" xmlns="http://www.w3.org/2000/svg" xmlns:xlink="http://www.w3.org/1999/xlink">
<g id="graph0" class="graph" transform="scale(1 1) rotate(0) translate(4 280)">
<title>dependencies</title>
<polygon fill="#ffffff" stroke="transparent" points="-4,4 -4,-280 919,-280 919,4 -4,4"/>
<text text-anchor="start" x="436.5091" y="-42.4" font-family="sans-serif" font-weight="bold" font-size="14.00" fill="#000000">Legend</text>
<polygon fill="#ffffb3" stroke="transparent" points="223.5,-10 223.5,-30 243.5,-30 243.5,-10 223.5,-10"/>
<text text-anchor="start" x="247.129" y="-15.4" font-family="sans-serif" font-size="14.00" fill="#000000"> &#160;Declarations</text>
<polygon fill="#8dd3c7" stroke="transparent" points="336.5,-10 336.5,-30 356.5,-30 356.5,-10 336.5,-10"/>
<text text-anchor="start" x="360.2251" y="-15.4" font-family="sans-serif" font-size="14.00" fill="#000000"> &#160;Module</text>
<polygon fill="#80b1d3" stroke="transparent" points="422.5,-10 422.5,-30 442.5,-30 442.5,-10 422.5,-10"/>
<text text-anchor="start" x="446.2812" y="-15.4" font-family="sans-serif" font-size="14.00" fill="#000000"> &#160;Bootstrap</text>
<polygon fill="#fdb462" stroke="transparent" points="519.5,-10 519.5,-30 539.5,-30 539.5,-10 519.5,-10"/>
<text text-anchor="start" x="543.1732" y="-15.4" font-family="sans-serif" font-size="14.00" fill="#000000"> &#160;Providers</text>
<polygon fill="#fb8072" stroke="transparent" points="615.5,-10 615.5,-30 635.5,-30 635.5,-10 615.5,-10"/>
<text text-anchor="start" x="639.2258" y="-15.4" font-family="sans-serif" font-size="14.00" fill="#000000"> &#160;Exports</text>
<g id="clust1" class="cluster">
<title>cluster_AppModule</title>
<polygon fill="none" stroke="#000000" stroke-dasharray="1,5" points="8,-70 8,-268 907,-268 907,-70 8,-70"/>
</g>
<g id="clust2" class="cluster">
<title>cluster_AppModule_declarations</title>
<polygon fill="none" stroke="#000000" points="200,-78 200,-130 899,-130 899,-78 200,-78"/>
</g>
<g id="clust9" class="cluster">
<title>cluster_AppModule_exports</title>
<polygon fill="none" stroke="#000000" points="435,-208 435,-260 559,-260 559,-208 435,-208"/>
</g>
<g id="clust11" class="cluster">
<title>cluster_AppModule_providers</title>
<polygon fill="none" stroke="#000000" points="16,-78 16,-130 192,-130 192,-78 16,-78"/>
</g>
<!-- AppComponent -->
<g id="node1" class="node">
<title>AppComponent</title>
<polygon fill="#ffffb3" stroke="#000000" points="890.9399,-122 785.0601,-122 785.0601,-86 890.9399,-86 890.9399,-122"/>
<text text-anchor="middle" x="838" y="-99.8" font-family="Times,serif" font-size="14.00" fill="#000000">AppComponent</text>
</g>
<!-- AppModule -->
<g id="node6" class="node">
<title>AppModule</title>
<polygon fill="#8dd3c7" stroke="#000000" points="538.6571,-187 535.6571,-191 514.6571,-191 511.6571,-187 455.3429,-187 455.3429,-151 538.6571,-151 538.6571,-187"/>
<text text-anchor="middle" x="497" y="-164.8" font-family="Times,serif" font-size="14.00" fill="#000000">AppModule</text>
</g>
<!-- AppComponent&#45;&gt;AppModule -->
<g id="edge1" class="edge">
<title>AppComponent&#45;&gt;AppModule</title>
<path fill="none" stroke="#000000" d="M838,-122.2843C838,-143.3211 838,-175 838,-175 838,-175 548.8133,-175 548.8133,-175"/>
<polygon fill="#000000" stroke="#000000" points="548.8133,-171.5001 538.8133,-175 548.8133,-178.5001 548.8133,-171.5001"/>
</g>
<!-- ButtonComponent -->
<g id="node2" class="node">
<title>ButtonComponent</title>
<polygon fill="#ffffb3" stroke="#000000" points="767.9511,-122 648.0489,-122 648.0489,-86 767.9511,-86 767.9511,-122"/>
<text text-anchor="middle" x="708" y="-99.8" font-family="Times,serif" font-size="14.00" fill="#000000">ButtonComponent</text>
</g>
<!-- ButtonComponent&#45;&gt;AppModule -->
<g id="edge2" class="edge">
<title>ButtonComponent&#45;&gt;AppModule</title>
<path fill="none" stroke="#000000" d="M708,-122.0225C708,-139.3734 708,-163 708,-163 708,-163 548.6868,-163 548.6868,-163"/>
<polygon fill="#000000" stroke="#000000" points="548.6868,-159.5001 538.6868,-163 548.6868,-166.5001 548.6868,-159.5001"/>
</g>
<!-- DisplayComponent -->
<g id="node3" class="node">
<title>DisplayComponent</title>
<polygon fill="#ffffb3" stroke="#000000" points="630.3795,-122 505.6205,-122 505.6205,-86 630.3795,-86 630.3795,-122"/>
<text text-anchor="middle" x="568" y="-99.8" font-family="Times,serif" font-size="14.00" fill="#000000">DisplayComponent</text>
</g>
<!-- DisplayComponent&#45;&gt;AppModule -->
<g id="edge3" class="edge">
<title>DisplayComponent&#45;&gt;AppModule</title>
<path fill="none" stroke="#000000" d="M522.1943,-122.1061C522.1943,-122.1061 522.1943,-140.991 522.1943,-140.991"/>
<polygon fill="#000000" stroke="#000000" points="518.6943,-140.9909 522.1943,-150.991 525.6943,-140.991 518.6943,-140.9909"/>
</g>
<!-- HistoryComponent -->
<g id="node4" class="node">
<title>HistoryComponent</title>
<polygon fill="#ffffb3" stroke="#000000" points="487.8258,-122 364.1742,-122 364.1742,-86 487.8258,-86 487.8258,-122"/>
<text text-anchor="middle" x="426" y="-99.8" font-family="Times,serif" font-size="14.00" fill="#000000">HistoryComponent</text>
</g>
<!-- HistoryComponent&#45;&gt;AppModule -->
<g id="edge4" class="edge">
<title>HistoryComponent&#45;&gt;AppModule</title>
<path fill="none" stroke="#000000" d="M471.4173,-122.1061C471.4173,-122.1061 471.4173,-140.991 471.4173,-140.991"/>
<polygon fill="#000000" stroke="#000000" points="467.9173,-140.9909 471.4173,-150.991 474.9173,-140.991 467.9173,-140.9909"/>
</g>
<!-- OnEnterKeyDirective -->
<g id="node5" class="node">
<title>OnEnterKeyDirective</title>
<polygon fill="#ffffb3" stroke="#000000" points="346.3291,-122 207.6709,-122 207.6709,-86 346.3291,-86 346.3291,-122"/>
<text text-anchor="middle" x="277" y="-99.8" font-family="Times,serif" font-size="14.00" fill="#000000">OnEnterKeyDirective</text>
</g>
<!-- OnEnterKeyDirective&#45;&gt;AppModule -->
<g id="edge5" class="edge">
<title>OnEnterKeyDirective&#45;&gt;AppModule</title>
<path fill="none" stroke="#000000" d="M277,-122.0225C277,-139.3734 277,-163 277,-163 277,-163 445.1018,-163 445.1018,-163"/>
<polygon fill="#000000" stroke="#000000" points="445.1019,-166.5001 455.1018,-163 445.1018,-159.5001 445.1019,-166.5001"/>
</g>
<!-- AppComponent  -->
<g id="node7" class="node">
<title>AppComponent </title>
<polygon fill="#fb8072" stroke="#000000" points="551.439,-252 442.561,-252 442.561,-216 551.439,-216 551.439,-252"/>
<text text-anchor="middle" x="497" y="-229.8" font-family="Times,serif" font-size="14.00" fill="#000000">AppComponent </text>
</g>
<!-- AppModule&#45;&gt;AppComponent  -->
<g id="edge6" class="edge">
<title>AppModule&#45;&gt;AppComponent </title>
<path fill="none" stroke="#000000" stroke-dasharray="5,2" d="M510.9427,-187.1061C510.9427,-187.1061 510.9427,-205.991 510.9427,-205.991"/>
<polygon fill="#000000" stroke="#000000" points="507.4428,-205.9909 510.9427,-215.991 514.4428,-205.991 507.4428,-205.9909"/>
</g>
<!-- AppModule&#45;&gt;AppComponent  -->
<g id="edge7" class="edge">
<title>AppModule&#45;&gt;AppComponent </title>
<path fill="none" stroke="#000000" stroke-dasharray="1,5" d="M483.0573,-187.1061C483.0573,-187.1061 483.0573,-205.991 483.0573,-205.991"/>
<polygon fill="#000000" stroke="#000000" points="479.5574,-205.9909 483.0573,-215.991 486.5574,-205.991 479.5574,-205.9909"/>
</g>
<!-- CalculatorService -->
<g id="node8" class="node">
<title>CalculatorService</title>
<ellipse fill="#fdb462" stroke="#000000" cx="104" cy="-104" rx="80.4306" ry="18"/>
<text text-anchor="middle" x="104" y="-99.8" font-family="Times,serif" font-size="14.00" fill="#000000">CalculatorService</text>
</g>
<!-- CalculatorService&#45;&gt;AppModule -->
<g id="edge8" class="edge">
<title>CalculatorService&#45;&gt;AppModule</title>
<path fill="none" stroke="#000000" d="M104,-122.2843C104,-143.3211 104,-175 104,-175 104,-175 445.3142,-175 445.3142,-175"/>
<polygon fill="#000000" stroke="#000000" points="445.3142,-178.5001 455.3142,-175 445.3141,-171.5001 445.3142,-178.5001"/>
</g>
</g>
</svg>
